<?xml version="1.0" standalone="no"?>
<!DOCTYPE svg PUBLIC "-//W3C//DTD SVG 20010904//EN"
 "http://www.w3.org/TR/2001/REC-SVG-20010904/DTD/svg10.dtd">
<svg version="1.0" xmlns="http://www.w3.org/2000/svg"
 width="640.000000pt" height="640.000000pt" viewBox="0 0 640.000000 640.000000"
 preserveAspectRatio="xMidYMid meet">
<metadata>
Created by potrace 1.14, written by Peter Selinger 2001-2017
</metadata>
<g transform="translate(0.000000,640.000000) scale(0.100000,-0.100000)"
fill="#000000" stroke="none">
<path d="M0 3200 l0 -3199 3200 -1 3200 0 0 3200 0 3200 -3200 0 -3200 0 0
-3200z m2548 1541 l82 -1 0 -60 0 -60 -87 -1 c-49 -1 -108 -2 -133 -3 l-45 0
-3 61 c-3 68 -2 69 68 67 19 -1 72 -2 118 -3z m869 -61 l2 -60 -304 0 -305 0
-2 58 -2 57 -3 -57 -4 -58 -79 0 -80 0 0 60 0 59 73 3 c39 2 214 2 387 0 l316
-3 1 -59z m173 0 l0 -60 -80 0 -80 0 0 60 0 60 80 0 80 0 0 -60z m170 0 l0
-60 -80 0 -80 0 0 60 0 60 80 0 80 0 0 -60z m152 0 l-4 -61 -66 3 -67 3 -3 58
-3 57 73 0 73 0 -3 -60z m6 -157 l3 -73 -246 0 -245 1 -2 67 -2 67 -3 -67 -4
-68 -389 0 -390 0 -2 68 -2 67 -3 -67 -4 -68 -124 0 c-69 0 -128 -1 -132 -2
-5 -2 -9 32 -11 74 l-3 77 778 -2 778 -2 3 -72z m-1603 57 c-3 -5 -10 -10 -16
-10 -5 0 -9 5 -9 10 0 6 7 10 16 10 8 0 12 -4 9 -10z m-5 -166 c0 -8 -5 -12
-10 -9 -6 4 -8 11 -5 16 9 14 15 11 15 -7z m320 -59 l0 -75 -135 0 -135 0 0
75 0 75 135 0 135 0 0 -75z m1290 0 l0 -75 -85 0 c-50 0 -85 -4 -85 -10 0 -6
35 -10 85 -10 l85 0 0 -69 0 -70 -52 -5 c-29 -3 -138 -4 -242 -3 l-190 2 -3
144 c-3 146 -13 211 -13 88 l0 -67 -315 0 c-216 0 -315 -3 -315 -11 0 -6 29
-10 78 -9 42 1 112 1 155 1 l78 -1 -4 -215 c-2 -118 -1 -215 2 -216 3 0 15 -2
26 -4 20 -4 98 -13 123 -14 9 -1 12 -37 12 -146 l0 -145 -75 0 -75 0 0 150 c0
93 -4 150 -10 150 -6 0 -10 -28 -10 -65 0 -62 -1 -65 -24 -65 -14 0 -28 -4
-31 -10 -4 -6 7 -10 24 -10 l31 0 0 -134 c0 -74 -4 -137 -9 -141 -18 -10 -265
-7 -269 4 -6 17 -22 13 -22 -4 0 -13 -13 -15 -72 -13 l-73 3 -6 60 -6 60 -1
-63 -2 -63 -62 5 c-35 2 -64 5 -65 5 -1 1 -4 25 -6 54 l-3 52 -2 -58 -2 -58
-67 3 -68 3 -3 68 c-2 37 -6 67 -10 67 -4 0 -6 -35 -4 -77 l3 -78 145 3 144 3
0 -80 0 -81 -165 0 c-103 0 -165 -4 -165 -10 0 -5 9 -10 20 -10 18 0 20 -7 20
-68 0 -65 -1 -69 -22 -67 -22 2 -23 6 -26 88 l-3 87 -39 0 -40 0 0 300 0 301
67 -3 67 -3 1 -115 0 -115 68 -3 c67 -3 67 -3 67 -32 0 -29 -1 -30 -51 -30
-38 0 -55 5 -65 18 -15 19 -19 5 -4 -18 8 -13 52 -15 290 -16 155 0 283 3 286
8 3 4 -15 9 -40 10 -25 1 -54 2 -63 2 -18 1 -34 33 -25 49 2 5 45 8 96 7 50
-1 97 -2 104 -1 22 2 14 311 -9 311 -4 0 -10 -10 -12 -22 -3 -17 -5 -14 -6 9
-1 22 3 31 12 28 18 -8 24 204 5 216 -18 12 -41 11 -33 -1 10 -16 -33 -20
-180 -17 l-140 2 0 74 0 74 68 1 c37 0 67 4 67 8 0 5 -31 8 -70 8 l-70 0 0 75
0 75 640 0 640 0 0 -75z m-1367 -94 l77 -1 0 -70 c0 -70 0 -70 -27 -71 -16 0
-75 -1 -133 -2 l-105 -2 -3 64 c-2 35 -1 69 1 75 3 6 27 11 58 10 30 -1 89 -2
132 -3z m865 -72 l-3 -72 -60 -1 -60 -1 0 -85 0 -85 35 -6 35 -6 -36 -2 c-37
-1 -37 -1 -29 -35 8 -35 5 -46 -13 -46 -5 0 -7 20 -5 45 2 29 -1 46 -9 50 -9
3 -13 -10 -13 -46 l0 -50 -72 3 -73 3 -3 203 -2 202 155 0 156 0 -3 -71z
m-423 -152 c4 -49 2 -77 -5 -77 -6 0 -10 33 -10 82 0 100 9 98 15 -5z m-525
-142 l0 -55 -55 0 -55 0 0 55 0 55 55 0 55 0 0 -55z m520 45 c0 -5 -5 -10 -11
-10 -5 0 -7 5 -4 10 3 6 8 10 11 10 2 0 4 -4 4 -10z m930 -45 l0 -55 -70 0
-70 0 0 55 0 55 70 0 70 0 0 -55z m-423 39 c-3 -3 -12 -4 -19 -1 -8 3 -5 6 6
6 11 1 17 -2 13 -5z m573 -174 l0 -70 -65 0 -65 0 0 70 0 70 65 0 65 0 0 -70z
m-700 0 c0 -33 -4 -60 -9 -60 -4 0 -6 24 -3 52 4 47 3 52 -11 40 -10 -9 -17
-10 -22 -2 -3 5 -16 11 -28 12 -12 0 -2 4 23 8 25 4 46 8 48 8 1 1 2 -25 2
-58z m-570 -35 l0 -35 -75 0 -75 0 0 35 0 35 75 0 75 0 0 -35z m960 0 l0 -35
-75 0 -75 0 0 35 0 35 75 0 75 0 0 -35z m310 -192 l0 -148 -148 0 -147 0 -3
63 -3 62 86 0 c55 0 84 4 80 10 -3 6 -40 10 -81 10 l-74 0 0 30 0 30 70 0 c68
0 70 -1 70 -25 0 -14 5 -25 10 -25 6 0 10 30 10 70 l0 70 65 0 65 0 0 -147z
m-1537 130 c-7 -2 -21 -2 -30 0 -10 3 -4 5 12 5 17 0 24 -2 18 -5z m97 -23 l0
-30 -57 2 c-54 1 -55 2 -13 5 54 5 83 36 43 46 -14 4 -12 5 5 6 18 1 22 -4 22
-29z m330 0 c0 -16 -3 -31 -7 -31 -5 -1 -38 -3 -75 -5 l-68 -3 0 35 0 34 75 0
75 0 0 -30z m412 -12 l3 -43 43 3 42 2 0 -40 0 -40 68 0 69 0 0 -60 1 -60 -47
-1 c-85 -2 -91 2 -91 69 0 40 -2 43 -22 37 -36 -11 -40 -11 -45 3 -3 8 6 12
26 12 28 0 31 3 31 31 0 29 -2 30 -37 27 -30 -2 -37 -7 -35 -20 2 -15 -5 -18
-43 -18 l-45 0 -1 53 c0 28 -2 60 -4 70 -3 14 4 17 40 17 l44 0 3 -42z m-868
-3 c3 -8 1 -15 -4 -15 -6 0 -10 7 -10 15 0 8 2 15 4 15 2 0 6 -7 10 -15z m273
-51 c-3 -3 -12 -4 -19 -1 -8 3 -5 6 6 6 11 1 17 -2 13 -5z m603 -117 l0 -53
40 4 c25 3 40 0 40 -7 0 -8 -54 -11 -174 -11 l-173 0 -7 38 c-14 88 -24 82
134 82 l140 0 0 -53z m380 -12 l0 -66 -72 3 -73 3 -3 63 -3 62 76 0 75 0 0
-65z m19 -77 l292 -2 -3 -71 -3 -70 -29 3 c-16 2 -31 0 -35 -6 -3 -5 -122 -12
-268 -15 l-263 -6 0 90 c0 50 4 88 8 85 5 -3 140 -6 301 -8z m-849 -84 l0 -83
-142 2 -142 2 -2 74 c-2 41 -1 78 2 82 2 5 67 8 144 8 l140 -1 0 -84z m325 33
l0 -47 -72 0 -73 0 0 48 0 47 73 -1 72 -1 0 -46z m-165 28 c0 -10 -11 -15 -35
-15 -24 0 -35 5 -35 15 0 10 11 15 35 15 24 0 35 -5 35 -15z m290 -6 c0 -18
-5 -20 -52 -17 -40 2 -52 7 -54 21 -2 14 6 17 52 17 48 0 54 -2 54 -21z m-750
-199 c0 -27 4 -50 8 -50 5 0 8 21 8 48 l0 47 72 3 72 3 0 -56 0 -55 -80 0
c-79 0 -80 0 -80 -26 0 -25 -1 -25 -72 -23 l-71 2 -1 -44 -1 -44 -57 -2 -58
-1 0 53 0 54 68 4 67 3 -77 2 -78 2 0 65 0 65 140 0 140 0 0 -50z m1366 -13
c-2 -34 -5 -88 -5 -119 l-1 -58 -40 0 -40 0 0 45 0 45 -71 0 c-66 0 -70 1 -64
20 6 19 2 20 -79 20 l-86 0 0 48 c0 27 3 52 6 55 4 3 92 6 195 7 l189 0 -4
-63z m-716 -417 l0 -41 -82 3 -83 3 -3 38 -3 37 85 0 86 0 0 -40z m62 -67 l3
-28 123 -3 122 -3 0 -34 0 -35 -82 0 c-45 0 -78 -3 -74 -7 4 -5 20 -8 34 -8
26 0 27 -2 30 -62 l2 -61 -42 1 -43 2 1 68 2 67 -63 0 -62 0 -2 56 c-1 64 3
74 29 74 13 0 20 -8 22 -27z m-242 -67 l0 -45 -137 6 c-76 3 -139 6 -140 7 -1
0 -3 15 -5 31 l-3 30 140 5 c77 3 141 7 143 8 1 1 2 -18 2 -42z m-140 -116 l0
-61 -72 3 -73 3 -3 58 -3 57 76 0 75 0 0 -60z m2074 -581 c-3 -5 -10 -7 -15
-3 -5 3 -7 10 -3 15 3 5 10 7 15 3 5 -3 7 -10 3 -15z m-577 5 c-3 -3 -12 -4
-19 -1 -8 3 -5 6 6 6 11 1 17 -2 13 -5z m50 0 c-3 -3 -12 -4 -19 -1 -8 3 -5 6
6 6 11 1 17 -2 13 -5z m570 0 c-3 -3 -12 -4 -19 -1 -8 3 -5 6 6 6 11 1 17 -2
13 -5z m56 -1 c-7 -2 -19 -2 -25 0 -7 3 -2 5 12 5 14 0 19 -2 13 -5z m167 -3
c0 -5 -5 -10 -11 -10 -5 0 -7 5 -4 10 3 6 8 10 11 10 2 0 4 -4 4 -10z m-4245
-90 c-3 -5 -10 -10 -16 -10 -5 0 -9 5 -9 10 0 6 7 10 16 10 8 0 12 -4 9 -10z
m105 0 c0 -5 -4 -10 -10 -10 -5 0 -10 5 -10 10 0 6 5 10 10 10 6 0 10 -4 10
-10z m70 -5 c0 -8 -6 -15 -14 -15 -17 0 -28 14 -19 24 12 12 33 6 33 -9z
m3835 5 c16 -7 12 -8 -17 -8 -21 1 -35 5 -32 10 6 10 22 9 49 -2z m148 -7 c-7
-2 -19 -2 -25 0 -7 3 -2 5 12 5 14 0 19 -2 13 -5z m84 1 c-3 -3 -12 -4 -19 -1
-8 3 -5 6 6 6 11 1 17 -2 13 -5z m-4027 -100 c0 -20 -4 -25 -16 -20 -9 3 -24
6 -35 6 -12 0 -19 7 -19 20 0 16 7 20 35 20 31 0 35 -3 35 -26z m-197 9 c-7
-2 -19 -2 -25 0 -7 3 -2 5 12 5 14 0 19 -2 13 -5z m4132 -3 c3 -5 -1 -10 -10
-10 -9 0 -13 5 -10 10 3 6 8 10 10 10 2 0 7 -4 10 -10z m255 0 c0 -5 -7 -10
-16 -10 -8 0 -12 5 -9 10 3 6 10 10 16 10 5 0 9 -4 9 -10z m-4233 -106 c-3 -3
-12 -4 -19 -1 -8 3 -5 6 6 6 11 1 17 -2 13 -5z m123 -4 c0 -5 -2 -10 -4 -10
-3 0 -8 5 -11 10 -3 6 -1 10 4 10 6 0 11 -4 11 -10z m4280 2 c0 -4 -21 -6 -47
-4 -83 5 -90 9 -20 11 37 0 67 -2 67 -7z m-4880 -92 c12 -8 11 -10 -7 -10 -13
0 -23 5 -23 10 0 13 11 13 30 0z m80 0 c0 -5 -5 -10 -11 -10 -5 0 -7 5 -4 10
3 6 8 10 11 10 2 0 4 -4 4 -10z m65 0 c3 -5 -1 -10 -10 -10 -9 0 -13 5 -10 10
3 6 8 10 10 10 2 0 7 -4 10 -10z m3125 0 c0 -5 -13 -10 -30 -10 -16 0 -30 5
-30 10 0 6 14 10 30 10 17 0 30 -4 30 -10z m45 0 c3 -5 -3 -10 -15 -10 -12 0
-18 5 -15 10 3 6 10 10 15 10 5 0 12 -4 15 -10z m1743 -10 c3 -9 -1 -11 -12
-7 -10 4 -25 7 -34 7 -14 0 -14 2 -3 9 19 12 44 7 49 -9z m-4821 4 c-3 -3 -12
-4 -19 -1 -8 3 -5 6 6 6 11 1 17 -2 13 -5z m1311 -1 c-15 -2 -42 -2 -60 0 -18
2 -6 4 27 4 33 0 48 -2 33 -4z m3269 1 c-3 -3 -12 -4 -19 -1 -8 3 -5 6 6 6 11
1 17 -2 13 -5z m60 0 c-3 -3 -12 -4 -19 -1 -8 3 -5 6 6 6 11 1 17 -2 13 -5z
m91 -1 c-10 -2 -26 -2 -35 0 -10 3 -2 5 17 5 19 0 27 -2 18 -5z m-5028 -90 c0
-5 -27 -9 -60 -10 -33 0 -60 3 -60 8 0 5 27 9 60 9 33 0 60 -3 60 -7z m150 -3
c0 -12 -119 -10 -126 2 -3 4 24 8 60 8 37 0 66 -4 66 -10z m160 0 c0 -6 -28
-10 -65 -10 -37 0 -65 4 -65 10 0 6 28 10 65 10 37 0 65 -4 65 -10z m170 0 c0
-6 -30 -10 -70 -10 -40 0 -70 4 -70 10 0 6 30 10 70 10 40 0 70 -4 70 -10z
m182 -25 l4 -35 -86 2 -85 2 70 3 c63 4 84 13 85 36 0 4 -34 7 -75 7 -43 0
-75 4 -75 10 0 6 33 10 79 10 l79 0 4 -35z m2571 28 c-7 -2 -21 -2 -30 0 -10
3 -4 5 12 5 17 0 24 -2 18 -5z m927 -3 c0 -6 -32 -10 -75 -10 -43 0 -75 4 -75
10 0 6 32 10 75 10 43 0 75 -4 75 -10z m140 0 c0 -6 -27 -10 -60 -10 -33 0
-60 4 -60 10 0 6 27 10 60 10 33 0 60 -4 60 -10z m160 0 c0 -6 -30 -10 -70
-10 -40 0 -70 4 -70 10 0 6 30 10 70 10 40 0 70 -4 70 -10z m170 0 c0 -6 -32
-10 -76 -10 -47 0 -73 4 -69 10 3 6 37 10 76 10 39 0 69 -4 69 -10z m155 0 c4
-6 -20 -10 -64 -10 -41 0 -71 4 -71 10 0 6 28 10 64 10 36 0 68 -4 71 -10z
m160 0 c4 -6 -20 -10 -64 -10 -41 0 -71 4 -71 10 0 6 28 10 64 10 36 0 68 -4
71 -10z m175 -30 c0 -31 -3 -38 -15 -34 -12 5 -13 10 -4 20 19 24 -1 34 -67
34 -41 0 -63 4 -59 10 3 6 37 10 76 10 l69 0 0 -40z m-5220 -15 c0 -8 -4 -15
-10 -15 -5 0 -10 7 -10 15 0 8 5 15 10 15 6 0 10 -7 10 -15z m100 -6 c0 -14
-17 -10 -23 5 -4 10 -1 13 9 9 7 -3 14 -9 14 -14z m50 11 c0 -5 16 -10 36 -10
19 0 33 4 30 8 -2 4 4 9 15 9 10 1 19 -5 19 -13 0 -11 -14 -14 -60 -14 -47 0
-60 3 -60 15 0 8 5 15 10 15 6 0 10 -4 10 -10z m191 1 c6 10 11 10 23 0 13
-11 19 -11 31 -1 12 10 15 10 15 -4 0 -13 -12 -16 -65 -16 -51 0 -65 3 -65 15
0 12 5 13 27 4 19 -7 28 -7 34 2z m164 -11 c33 0 55 5 57 12 3 7 7 6 11 -5 6
-15 -2 -17 -63 -17 -60 0 -70 2 -69 18 0 10 3 12 6 5 3 -8 25 -13 58 -13z
m3625 5 c0 -8 -4 -15 -10 -15 -5 0 -7 7 -4 15 4 8 8 15 10 15 2 0 4 -7 4 -15z
m130 0 c0 -10 -9 -15 -27 -14 -24 2 -25 2 -5 6 12 2 22 9 22 14 0 5 2 9 5 9 3
0 5 -7 5 -15z m144 0 c4 -13 -6 -15 -62 -13 l-67 2 58 3 c31 2 57 8 57 13 0
15 7 12 14 -5z m-4349 -5 c17 -7 15 -9 -12 -9 -18 -1 -33 4 -33 9 0 12 17 12
45 0z m4835 -6 c0 -2 -33 -3 -72 -2 l-73 1 55 6 c52 6 90 3 90 -5z m-723 0
c-3 -3 -12 -4 -19 -1 -8 3 -5 6 6 6 11 1 17 -2 13 -5z m346 -1 c-18 -2 -48 -2
-65 0 -18 2 -4 4 32 4 36 0 50 -2 33 -4z m185 0 c-21 -2 -57 -2 -80 0 -24 2
-7 4 37 4 44 0 63 -2 43 -4z m320 0 c-21 -2 -55 -2 -75 0 -21 2 -4 4 37 4 41
0 58 -2 38 -4z m125 0 c-13 -2 -35 -2 -50 0 -16 2 -5 4 22 4 28 0 40 -2 28 -4z
m-3340 -30 c-13 -2 -35 -2 -50 0 -16 2 -5 4 22 4 28 0 40 -2 28 -4z m1364 1
c-3 -3 -12 -4 -19 -1 -8 3 -5 6 6 6 11 1 17 -2 13 -5z m156 -1 c-7 -2 -19 -2
-25 0 -7 3 -2 5 12 5 14 0 19 -2 13 -5z m-3331 -38 c-6 -34 -12 -32 -12 6 0
16 4 28 9 25 4 -3 6 -17 3 -31z m168 21 c0 -2 -7 -6 -15 -10 -8 -3 -15 -1 -15
4 0 6 7 10 15 10 8 0 15 -2 15 -4z m67 -2 c-3 -3 -12 -4 -19 -1 -8 3 -5 6 6 6
11 1 17 -2 13 -5z m4993 -4 c0 -5 -2 -10 -4 -10 -3 0 -8 5 -11 10 -3 6 -1 10
4 10 6 0 11 -4 11 -10z m-915 -20 c3 -5 1 -10 -4 -10 -6 0 -11 5 -11 10 0 6 2
10 4 10 3 0 8 -4 11 -10z m-2005 -180 c0 -5 -7 -10 -15 -10 -8 0 -15 5 -15 10
0 6 7 10 15 10 8 0 15 -4 15 -10z m50 6 c0 -11 -19 -15 -25 -6 -3 5 1 10 9 10
9 0 16 -2 16 -4z m487 -2 c-3 -3 -12 -4 -19 -1 -8 3 -5 6 6 6 11 1 17 -2 13
-5z m2563 -49 c0 -14 -2 -25 -4 -25 -2 0 -6 11 -8 25 -3 14 -1 25 3 25 5 0 9
-11 9 -25z m-5133 -102 c-3 -10 -5 -2 -5 17 0 19 2 27 5 18 2 -10 2 -26 0 -35z
m-158 -52 c-2 -101 -17 -109 -21 -12 -2 46 -1 84 1 87 13 13 21 -16 20 -75z
m4821 65 c0 -22 -20 -30 -21 -9 0 16 -1 16 -9 -2 -8 -19 -9 -19 -9 3 -1 16 5
22 19 22 11 0 20 -6 20 -14z m-3005 -86 c3 -5 1 -10 -4 -10 -6 0 -11 5 -11 10
0 6 2 10 4 10 3 0 8 -4 11 -10z m-306 -97 c0 -25 -1 -26 -9 -8 -12 27 -12 35
0 35 6 0 10 -12 9 -27z m301 17 c0 -5 -5 -10 -11 -10 -5 0 -7 5 -4 10 3 6 8
10 11 10 2 0 4 -4 4 -10z m925 0 c3 -5 -1 -10 -9 -10 -9 0 -16 5 -16 10 0 6 4
10 9 10 6 0 13 -4 16 -10z m655 6 c0 -2 -13 -6 -30 -8 -16 -3 -30 -1 -30 4 0
4 14 8 30 8 17 0 30 -2 30 -4z m-3306 -61 c-4 -8 -7 -15 -9 -15 -2 0 -5 7 -9
15 -3 9 0 15 9 15 9 0 12 -6 9 -15z m28 -37 c-5 -95 -9 -104 -11 -25 0 42 2
77 7 77 4 0 6 -24 4 -52z m4670 17 c-2 -19 -6 -35 -8 -35 -2 0 -4 16 -4 35 0
19 4 35 8 35 4 0 6 -16 4 -35z m-3182 -17 c0 -16 -3 -19 -9 -10 -4 7 -25 15
-45 16 -57 5 -55 16 2 16 47 0 52 -2 52 -22z m1730 12 c0 -5 -11 -10 -25 -10
-14 0 -25 5 -25 10 0 6 11 10 25 10 14 0 25 -4 25 -10z m-760 -60 c0 -5 -14
-10 -31 -10 -17 0 -28 4 -24 10 3 6 17 10 31 10 13 0 24 -4 24 -10z m157 -6
c-3 -3 -12 -4 -19 -1 -8 3 -5 6 6 6 11 1 17 -2 13 -5z m-1027 -13 c0 -10 -78
-7 -88 3 -3 3 16 6 41 6 26 0 47 -4 47 -9z m1550 5 c0 -8 -51 -13 -56 -5 -3 5
9 9 25 9 17 0 31 -2 31 -4z m-3010 -106 c0 -27 -4 -50 -10 -50 -5 0 -8 17 -7
38 l2 37 -52 3 c-73 4 -67 22 7 22 l60 0 0 -50z m4504 41 c4 -5 -19 -11 -49
-13 -39 -2 -55 1 -55 10 0 14 96 17 104 3z m-2557 -17 c-3 -3 -12 -4 -19 -1
-8 3 -5 6 6 6 11 1 17 -2 13 -5z m450 0 c-3 -3 -12 -4 -19 -1 -8 3 -5 6 6 6
11 1 17 -2 13 -5z m111 -1 c-10 -2 -26 -2 -35 0 -10 3 -2 5 17 5 19 0 27 -2
18 -5z m-898 -103 c0 -11 -4 -20 -10 -20 -5 0 -10 4 -10 8 0 5 -12 13 -27 19
-28 11 -28 11 10 12 31 1 37 -2 37 -19z m100 -89 c0 -9 -60 -19 -79 -13 -27 9
-7 22 34 22 25 0 45 -4 45 -9z m1055 0 c-6 -11 -115 -10 -115 1 0 4 27 8 61 8
34 0 58 -4 54 -9z m-3332 -28 c-18 -2 -48 -2 -65 0 -18 2 -4 4 32 4 36 0 50
-2 33 -4z m277 -33 c0 -22 -3 -40 -8 -40 -4 0 -7 15 -7 33 l0 32 -103 2 c-57
0 -106 4 -109 7 -4 3 46 6 110 6 l117 0 0 -40z m5340 0 c0 -22 -4 -40 -10 -40
-5 0 -10 16 -10 35 l0 35 -149 -1 -150 -1 -4 -36 c-4 -37 -4 -37 -5 6 l-2 42
165 0 165 0 0 -40z m-5548 -15 c3 -14 1 -25 -3 -25 -5 0 -9 11 -9 25 0 14 2
25 4 25 2 0 6 -11 8 -25z m155 -21 c-3 -3 -12 -4 -19 -1 -8 3 -5 6 6 6 11 1
17 -2 13 -5z m5156 -1 c-13 -2 -33 -2 -45 0 -13 2 -3 4 22 4 25 0 35 -2 23 -4z
m160 0 c-7 -2 -21 -2 -30 0 -10 3 -4 5 12 5 17 0 24 -2 18 -5z m-5123 -48 c0
-6 -65 -9 -180 -7 -116 2 -180 7 -180 13 0 7 60 9 180 7 111 -2 180 -7 180
-13z m4840 4 c14 -2 -11 -5 -55 -8 -82 -6 -98 -5 -91 7 4 6 84 7 146 1z m190
1 c0 -6 -33 -10 -80 -10 -47 0 -80 4 -80 10 0 6 33 10 80 10 47 0 80 -4 80
-10z m-3100 -10 c0 -5 -13 -10 -30 -10 -16 0 -30 5 -30 10 0 6 14 10 30 10 17
0 30 -4 30 -10z m30 0 c0 -5 -2 -10 -4 -10 -3 0 -8 5 -11 10 -3 6 -1 10 4 10
6 0 11 -4 11 -10z m820 0 c0 -5 -16 -10 -35 -10 -19 0 -35 5 -35 10 0 6 16 10
35 10 19 0 35 -4 35 -10z m-2783 -132 c-2 -18 -4 -4 -4 32 0 36 2 50 4 33 2
-18 2 -48 0 -65z m2048 42 c4 -6 -15 -10 -49 -10 -31 0 -56 5 -56 10 0 6 22
10 49 10 28 0 53 -4 56 -10z m613 -7 c-25 -3 -38 -9 -38 -19 0 -8 -4 -14 -9
-14 -6 0 -9 9 -8 20 1 17 8 20 47 18 43 -1 44 -2 8 -5z"/>
<path d="M3871 4677 c2 -26 6 -47 11 -47 8 0 1 80 -8 89 -3 3 -4 -16 -3 -42z"/>
<path d="M3593 4525 c0 -33 2 -45 4 -27 2 18 2 45 0 60 -2 15 -4 0 -4 -33z"/>
<path d="M3593 4350 c0 -30 2 -43 4 -27 2 15 2 39 0 55 -2 15 -4 2 -4 -28z"/>
<path d="M3520 4280 c-65 -5 -70 -6 -40 -13 19 -4 52 -6 73 -3 20 3 37 2 37
-2 0 -10 133 -2 144 8 11 11 -117 17 -214 10z"/>
<path d="M3593 4185 c0 -33 2 -45 4 -27 2 18 2 45 0 60 -2 15 -4 0 -4 -33z"/>
<path d="M3761 4186 c0 -35 3 -56 8 -50 4 5 5 32 1 59 l-7 50 -2 -59z"/>
<path d="M2791 3458 c-1 -21 4 -38 9 -38 11 0 11 14 0 50 -7 22 -8 21 -9 -12z"/>
<path d="M3806 3555 c4 -8 7 -15 9 -15 2 0 5 7 9 15 3 9 0 15 -9 15 -9 0 -12
-6 -9 -15z"/>
<path d="M3880 3554 c0 -8 5 -12 10 -9 6 3 10 10 10 16 0 5 -4 9 -10 9 -5 0
-10 -7 -10 -16z"/>
<path d="M2799 3315 c-4 -73 -3 -85 4 -85 4 0 7 25 7 55 0 55 -9 78 -11 30z"/>
<path d="M3121 3304 c0 -11 3 -14 6 -6 3 7 2 16 -1 19 -3 4 -6 -2 -5 -13z"/>
<path d="M3158 3303 c7 -3 16 -2 19 1 4 3 -2 6 -13 5 -11 0 -14 -3 -6 -6z"/>
<path d="M3771 3154 c0 -11 3 -14 6 -6 3 7 2 16 -1 19 -3 4 -6 -2 -5 -13z"/>
<path d="M3937 3064 c-12 -12 -8 -96 3 -89 6 4 8 15 5 26 -5 14 0 21 14 27 15
5 18 11 11 22 -9 13 -10 13 -11 0 0 -11 -2 -10 -8 3 -3 10 -10 15 -14 11z"/>
<path d="M3434 2479 c-7 -11 0 -59 8 -59 4 0 8 4 8 10 0 5 6 7 13 5 8 -3 13 5
14 24 2 24 -2 29 -18 28 -11 -1 -22 -4 -25 -8z"/>
<path d="M2830 2578 c0 -16 5 -28 10 -28 13 0 13 20 0 40 -8 12 -10 9 -10 -12z"/>
</g>
</svg>
